<?xml version="1.0" standalone="no"?>
<!DOCTYPE svg PUBLIC "-//W3C//DTD SVG 20010904//EN"
 "http://www.w3.org/TR/2001/REC-SVG-20010904/DTD/svg10.dtd">
<svg version="1.0" xmlns="http://www.w3.org/2000/svg"
 width="260.000000pt" height="260.000000pt" viewBox="0 0 260.000000 260.000000"
 preserveAspectRatio="xMidYMid meet">
<metadata>
Created by potrace 1.11, written by Peter Selinger 2001-2013
</metadata>
<g transform="translate(0.000000,260.000000) scale(0.100000,-0.100000)"
fill="#000000" stroke="none">
<path d="M330 2584 c-144 -39 -276 -170 -314 -314 -12 -46 -15 -198 -15 -965
0 -587 3 -926 10 -955 37 -161 174 -300 332 -335 64 -14 179 -15 992 -13 908
3 921 4 971 24 141 58 252 185 283 324 14 60 15 1803 1 1884 -27 165 -173 317
-340 355 -29 7 -371 10 -955 10 -771 0 -918 -2 -965 -15z"/>
</g>
</svg>
