<svg xmlns="http://www.w3.org/2000/svg" width="62.313" height="62.313" viewBox="0 0 62.313 62.313">
  <g id="Group_25" data-name="Group 25" transform="translate(-0.008 -0.493)">
    <path id="Path_26" data-name="Path 26" d="M79.463,97.2A31.156,31.156,0,1,0,110.62,128.36,31.155,31.155,0,0,0,79.463,97.2m0,60.444a29.287,29.287,0,1,1,29.287-29.287,29.321,29.321,0,0,1-29.287,29.287" transform="translate(-48.299 -96.711)" fill="#003a87"/>
    <path id="Path_27" data-name="Path 27" d="M1.035-3.22V-4.347L7.981-16.1H10.6V-5.428h1.932V-3.22H10.6V0H8.234V-3.22Zm7.2-9.085L4.186-5.428H8.234Zm18.1,10.35A4.961,4.961,0,0,1,24.529-.38a5.523,5.523,0,0,1-2.564.564,7.3,7.3,0,0,1-3.634-.943,6.986,6.986,0,0,1-2.7-2.794A9.172,9.172,0,0,1,14.6-8.05a8.867,8.867,0,0,1,1.069-4.485,7.131,7.131,0,0,1,2.818-2.806,7.776,7.776,0,0,1,3.749-.943,6.708,6.708,0,0,1,4.083,1.161,6.667,6.667,0,0,1,2.311,3.208l-2.231.966a4.148,4.148,0,0,0-4.163-2.967,5.046,5.046,0,0,0-2.565.656,4.66,4.66,0,0,0-1.817,1.978,7.017,7.017,0,0,0-.679,3.231A7.177,7.177,0,0,0,17.848-4.8a4.562,4.562,0,0,0,1.783,1.966,4.856,4.856,0,0,0,2.472.644,4,4,0,0,0,2.979-1.081,4.017,4.017,0,0,0,1.161-2.691h-3.2V-8.119h5.681V0H26.588Z" transform="translate(15.714 40.527)" fill="#003a87"/>
  </g>
</svg>
