<svg xmlns="http://www.w3.org/2000/svg" xmlns:xlink="http://www.w3.org/1999/xlink" width="63" height="63" viewBox="0 0 63 63">
  <defs>
    <clipPath id="clip-path">
      <rect id="Rectangle_2" data-name="Rectangle 2" width="63" height="63" transform="translate(-0.099 -0.473)" fill="none"/>
    </clipPath>
  </defs>
  <g id="_5G" data-name="5G" transform="translate(0.099 0.473)">
    <g id="Group_3" data-name="Group 3" transform="translate(0 0)" clip-path="url(#clip-path)">
      <path id="Path_4" data-name="Path 4" d="M79.463,97.2A31.156,31.156,0,1,0,110.62,128.36,31.155,31.155,0,0,0,79.463,97.2m0,60.444a29.287,29.287,0,1,1,29.287-29.287,29.321,29.321,0,0,1-29.287,29.287" transform="translate(-48.299 -96.711)" fill="#003a87"/>
      <path id="Path_5" data-name="Path 5" d="M63.924,124.885c1.793,0,2.935-1.281,2.935-3.26,0-2.119-1.188-3.263-3-3.263a3.408,3.408,0,0,0-2.819,1.631l-2.05-.4.907-8.945h8.48v2.305H61.967l-.465,4.078a4.609,4.609,0,0,1,2.748-.886c3.261,0,5.1,2.19,5.1,5.475a5.53,5.53,0,0,1-10.832,1.56l2.329-.793a3.015,3.015,0,0,0,3.076,2.493" transform="translate(-41.254 -87.433)" fill="#003a87"/>
      <path id="Path_6" data-name="Path 6" d="M73.708,127.222c-3.819,0-7.454-2.771-7.454-8.341s3.8-8.338,7.735-8.338a6.307,6.307,0,0,1,6.474,4.428l-2.259.978a4.174,4.174,0,0,0-4.215-3.006c-2.8,0-5.125,1.932-5.125,5.938,0,4.079,2.329,5.942,4.985,5.942A3.9,3.9,0,0,0,78.043,121H74.8v-2.19h5.752v8.223H78.391l-.257-1.981a5.1,5.1,0,0,1-4.426,2.166" transform="translate(-35.918 -87.509)" fill="#003a87"/>
    </g>
  </g>
</svg>
