<svg xmlns="http://www.w3.org/2000/svg" xmlns:xlink="http://www.w3.org/1999/xlink" width="63" height="63" viewBox="0 0 63 63">
  <defs>
    <clipPath id="clip-path">
      <rect id="Rectangle_11" data-name="Rectangle 11" width="63" height="63" transform="translate(-0.332 0.119)" fill="none"/>
    </clipPath>
  </defs>
  <g id="charging" transform="translate(0.332 -0.119)">
    <g id="Group_14" data-name="Group 14" transform="translate(0 0)" clip-path="url(#clip-path)">
      <path id="Path_22" data-name="Path 22" d="M264.123,97.2a31.025,31.025,0,1,0,31.025,31.025A31.024,31.024,0,0,0,264.123,97.2m0,60.188a29.164,29.164,0,1,1,29.164-29.164,29.2,29.2,0,0,1-29.164,29.164" transform="translate(-232.839 -96.815)" fill="#003a87"/>
      <path id="Path_23" data-name="Path 23" d="M272.173,110.97a6.658,6.658,0,1,0-13.316.005l.133,24.536a4.9,4.9,0,1,1-9.794,0V125.436h3.059a2.613,2.613,0,0,0,2.607-2.61V110.49h-.7v-2.654H242.3v2.654h-.693v12.336a2.614,2.614,0,0,0,2.612,2.61h3.219v10.075a6.658,6.658,0,1,0,13.316-.005l-.135-24.536a4.9,4.9,0,0,1,9.8,0v20.412h-2.824V142.3H275V131.382h-2.829ZM244.061,109.6H252.4v.894h-8.343Zm-.693,13.23V112.252H253.1v10.574a.85.85,0,0,1-.848.85h-8.039a.848.848,0,0,1-.85-.85m29.874,17.716h-3.891v-7.4h3.891Z" transform="translate(-227.03 -91.961)" fill="#003a87"/>
    </g>
  </g>
</svg>
