<svg xmlns="http://www.w3.org/2000/svg" xmlns:xlink="http://www.w3.org/1999/xlink" width="63" height="63" viewBox="0 0 63 63">
  <defs>
    <clipPath id="clip-path">
      <rect id="Rectangle_5" data-name="Rectangle 5" width="63" height="63" transform="translate(-0.343 -0.473)" fill="none"/>
    </clipPath>
  </defs>
  <g id="memory" transform="translate(0.343 0.473)">
    <g id="Group_11" data-name="Group 11" transform="translate(0)" clip-path="url(#clip-path)">
      <path id="Path_16" data-name="Path 16" d="M290.638,97.2a31.025,31.025,0,1,0,31.025,31.025A31.024,31.024,0,0,0,290.638,97.2m0,60.188A29.164,29.164,0,1,1,319.8,128.229a29.2,29.2,0,0,1-29.164,29.164" transform="translate(-258.756 -96.45)" fill="#003a87"/>
      <path id="Path_17" data-name="Path 17" d="M289.739,104.487h-15.9a3.26,3.26,0,0,0-3.258,3.258V138.77a3.259,3.259,0,0,0,3.258,3.256h18.615a3.259,3.259,0,0,0,3.258-3.256V110.462Zm-15.9,1.861h15.126l4.345,4.345H272.444v-2.948a1.382,1.382,0,0,1,1.4-1.4m18.615,33.818H273.841a1.382,1.382,0,0,1-1.4-1.4V112.552h21.408V138.77a1.382,1.382,0,0,1-1.4,1.4" transform="translate(-251.266 -91.477)" fill="#003a87"/>
      <path id="Path_18" data-name="Path 18" d="M277.4,126.1a5.05,5.05,0,0,1-2.516-.65,4.749,4.749,0,0,1-1.853-1.922,6.376,6.376,0,0,1-.7-3.095,6.038,6.038,0,0,1,.745-3.095,4.951,4.951,0,0,1,1.962-1.923,5.518,5.518,0,0,1,2.625-.648,4.764,4.764,0,0,1,2.9.83,4.417,4.417,0,0,1,1.583,2.257l-1.789.759a2.951,2.951,0,0,0-1.013-1.449,2.77,2.77,0,0,0-1.679-.5,3.326,3.326,0,0,0-1.652.412,2.89,2.89,0,0,0-1.165,1.257,4.666,4.666,0,0,0-.426,2.1,4.735,4.735,0,0,0,.419,2.112,2.817,2.817,0,0,0,1.132,1.252,3.134,3.134,0,0,0,1.567.4,2.643,2.643,0,0,0,1.875-.626,2.4,2.4,0,0,0,.784-1.477h-2.058V120.39h4.05v5.587H280.47l-.173-1.188a3.49,3.49,0,0,1-2.9,1.316" transform="translate(-250.069 -84.455)" fill="#003a87"/>
      <path id="Path_19" data-name="Path 19" d="M279.089,114.848h4.241a3.4,3.4,0,0,1,2.312.745,2.7,2.7,0,0,1,.855,2.152,2.471,2.471,0,0,1-.326,1.25,2.715,2.715,0,0,1-.766.885,2.888,2.888,0,0,1,1.21,1.02,2.968,2.968,0,0,1,.451,1.688,3.14,3.14,0,0,1-.981,2.443,3.82,3.82,0,0,1-2.675.9h-4.32Zm4.131,4.306a1.38,1.38,0,0,0,.964-.3,1.152,1.152,0,0,0,.333-.9q0-1.2-1.346-1.2h-2.024v2.4Zm0,4.873a2.089,2.089,0,0,0,1.353-.363,1.665,1.665,0,0,0,0-2.246,2.089,2.089,0,0,0-1.353-.365h-2.073v2.975Z" transform="translate(-245.459 -84.403)" fill="#003a87"/>
    </g>
  </g>
</svg>
