<svg xmlns="http://www.w3.org/2000/svg" xmlns:xlink="http://www.w3.org/1999/xlink" width="63" height="62" viewBox="0 0 63 62">
  <defs>
    <clipPath id="clip-path">
      <rect id="Rectangle_7" data-name="Rectangle 7" width="63" height="62" transform="translate(-0.332 0.361)" fill="none"/>
    </clipPath>
  </defs>
  <g id="ram" transform="translate(0.332 -0.361)">
    <g id="Group_15" data-name="Group 15" transform="translate(0 0)" clip-path="url(#clip-path)">
      <path id="Path_22" data-name="Path 22" d="M254.116,124.583a6.36,6.36,0,1,1,6.361-6.361,6.369,6.369,0,0,1-6.361,6.361m0-10.859a4.5,4.5,0,1,0,4.5,4.5,4.5,4.5,0,0,0-4.5-4.5" transform="translate(-222.832 -86.467)" fill="#003a87"/>
      <path id="Path_23" data-name="Path 23" d="M253.758,137.668l-.079-.845a4.631,4.631,0,0,0-2.3-3.579,4.785,4.785,0,0,0-4.269-.207l-.766.345-4.119-7.108.688-.49a4.617,4.617,0,0,0-.017-7.552l-.693-.491,4.153-7.148.767.348a4.7,4.7,0,0,0,4.256-.185,4.634,4.634,0,0,0,2.3-3.576l.082-.841,8.284-.008.079.843a4.634,4.634,0,0,0,2.3,3.583,4.779,4.779,0,0,0,4.272.205l.762-.342,4.119,7.106-.69.491a4.619,4.619,0,0,0,.015,7.55l.693.49-4.15,7.15-.769-.352a4.709,4.709,0,0,0-4.257.188,4.635,4.635,0,0,0-2.289,3.576l-.082.84Zm-4.707-6.908A6.494,6.494,0,0,1,255.4,135.8l5.013,0a6.492,6.492,0,0,1,3.079-4.17,6.584,6.584,0,0,1,5.163-.57l2.5-4.315a6.472,6.472,0,0,1-.012-9.5l-2.486-4.286a6.633,6.633,0,0,1-5.168-.587,6.513,6.513,0,0,1-3.084-4.175l-5.013.005a6.488,6.488,0,0,1-3.079,4.17,6.593,6.593,0,0,1-5.164.569l-2.506,4.315a6.474,6.474,0,0,1,.015,9.5l2.484,4.286a6.617,6.617,0,0,1,1.908-.283" transform="translate(-226.619 -90.245)" fill="#003a87"/>
      <path id="Path_24" data-name="Path 24" d="M264.123,99.066a29.164,29.164,0,1,1-29.164,29.164,29.2,29.2,0,0,1,29.164-29.164m0-1.861a31.025,31.025,0,1,0,31.025,31.025A31.024,31.024,0,0,0,264.123,97.2" transform="translate(-232.839 -96.475)" fill="#003a87"/>
    </g>
  </g>
</svg>
