<svg id="Layer_1" data-name="Layer 1" xmlns="http://www.w3.org/2000/svg" viewBox="0 0 200.78 66.66"><path d="M390.43,374.3c-2.73-15.68-49.83-20.57-105.2-10.93-23.26,4.05-44.26,10-60.61,16.75,2.51.06,4.37.63,5.5,1.76a4.9,4.9,0,0,1,1.34,3.62v1.55H226v-1.37a1.73,1.73,0,0,0-1.91-1.85,1.68,1.68,0,0,0-1.85,1.37,2.64,2.64,0,0,0,0,1.08c.59,2.38,8.65,3.85,9.53,8.23a10.53,10.53,0,0,1,0,3.5c-.5,3.54-3.61,4.9-7.56,4.9-5.52,0-7.76-2.61-7.76-6.22V395h5.82v2.12A1.83,1.83,0,0,0,224.4,399a1.78,1.78,0,0,0,2-1.38,2.72,2.72,0,0,0,0-1.52c-1.08-2.71-8.61-4-9.54-8.34a7.47,7.47,0,0,1,0-2.87,5.36,5.36,0,0,1,.48-1.51c-18.14,8.48-28.75,17.81-27.35,25.87,2.74,15.68,49.84,20.57,105.21,10.92,24.34-4.23,46.22-10.58,62.88-17.68-.24,0-.47,0-.72,0-3.79,0-7.18-1.42-7.53-5.29-.06-.7-.07-1-.07-1.4v-8.91c0-.38,0-1.05.08-1.4.45-3.75,3.41-5.29,7.52-5.29,3.17,0,7.06.91,7.49,5.29a12.2,12.2,0,0,1,.05,1.33h0v.84h-5.48v-1.25h0a5.35,5.35,0,0,0-.07-.79,1.85,1.85,0,0,0-2-1.49,1.89,1.89,0,0,0-2.05,1.49,5.14,5.14,0,0,0-.08,1v9.68a4.49,4.49,0,0,0,0,.8,2.22,2.22,0,0,0,4.19,0,5.81,5.81,0,0,0,.05-.8v-3h-2.16v-3.23h7.63v5.75c0,.39,0,.68-.07,1.4a5.47,5.47,0,0,1-.92,2.61C381.53,391.43,391.82,382.24,390.43,374.3ZM246.84,402.08l-2.77-18.87H244l-2.85,18.87h-5.86l3.94-21.31h9.55l3.92,21.31Zm28.17,0-.13-18.51h-.1l-3.44,18.51h-5.5l-3.43-18.51h-.09l-.13,18.51h-5.44l.47-21.31H266l2.55,15.83h.12l2.56-15.83H280l.47,21.31ZM300.65,398c-.59,4.13-4.63,4.85-7.49,4.85-4.75,0-7.68-2-7.68-6.16V395h5.75v2.1a1.82,1.82,0,0,0,2,1.84,1.76,1.76,0,0,0,2-1.36,2.68,2.68,0,0,0,0-1.51c-1.06-2.66-8.53-3.95-9.44-8.26a7.13,7.13,0,0,1,0-2.84c.63-3.9,4.37-4.71,7.38-4.71,2.7,0,4.66.58,5.83,1.76a4.85,4.85,0,0,1,1.33,3.58v1.54h-5.38v-1.36a1.71,1.71,0,0,0-1.88-1.83,1.67,1.67,0,0,0-1.85,1.35,2.46,2.46,0,0,0,0,1.08c.58,2.36,8.57,3.81,9.44,8.15A10.17,10.17,0,0,1,300.65,398ZM320.57,396c0,.4,0,1.19-.06,1.4-.33,3.51-2.84,5.3-7.44,5.3s-7.14-1.79-7.47-5.3c0-.21-.06-1-.05-1.4V380.76h5.5V396.5a3.37,3.37,0,0,0,.05.79,2,2,0,0,0,3.93,0,4.27,4.27,0,0,0,.05-.8V380.76h5.49Zm23.7,5.85h-7.66L331.48,385h-.09l.28,16.89h-5.33v-21.1h8L339.07,397h.11l-.28-16.22h5.37Z" transform="translate(-189.78 -358.43)"/></svg>