<svg xmlns="http://www.w3.org/2000/svg" xmlns:xlink="http://www.w3.org/1999/xlink" width="63" height="63" viewBox="0 0 63 63">
  <defs>
    <clipPath id="clip-path">
      <rect id="Rectangle_3" data-name="Rectangle 3" width="63" height="63" transform="translate(-0.111 -0.473)" fill="none"/>
    </clipPath>
  </defs>
  <g id="screen-size" transform="translate(0.111 0.473)">
    <g id="Group_7" data-name="Group 7" transform="translate(0)">
      <g id="Group_6" data-name="Group 6">
        <g id="Mask_Group_1" data-name="Mask Group 1" clip-path="url(#clip-path)">
          <path id="Path_7" data-name="Path 7" d="M175.205,118.774l-6.113,6.113v-3.9H167.23v7.079h7.081V126.2h-3.906l6.115-6.113Z" transform="translate(-143.971 -81.723)" fill="#003a87"/>
          <path id="Path_8" data-name="Path 8" d="M186.765,104.487H168.151a3.262,3.262,0,0,0-3.258,3.258V138.77a3.26,3.26,0,0,0,3.258,3.258h18.615a3.259,3.259,0,0,0,3.256-3.258V107.745a3.26,3.26,0,0,0-3.256-3.258m1.4,34.283a1.382,1.382,0,0,1-1.4,1.4H168.151a1.382,1.382,0,0,1-1.4-1.4V107.745a1.382,1.382,0,0,1,1.4-1.4h18.615a1.382,1.382,0,0,1,1.4,1.4Z" transform="translate(-145.567 -91.477)" fill="#003a87"/>
          <path id="Path_9" data-name="Path 9" d="M174.178,109.114h3.906l-6.115,6.113,1.316,1.318,6.115-6.115v3.9h1.859v-7.081h-7.081Z" transform="translate(-140.736 -89.589)" fill="#003a87"/>
          <path id="Path_10" data-name="Path 10" d="M184.948,97.2a31.025,31.025,0,1,0,31.025,31.025A31.024,31.024,0,0,0,184.948,97.2m0,60.188a29.164,29.164,0,1,1,29.164-29.164,29.2,29.2,0,0,1-29.164,29.164" transform="translate(-153.056 -96.45)" fill="#003a87"/>
        </g>
      </g>
    </g>
  </g>
</svg>
