<svg xmlns="http://www.w3.org/2000/svg" width="286.073" height="105.947" viewBox="0 0 286.073 105.947">
  <g id="Group_2" data-name="Group 2" transform="translate(-187.401 -332.994)">
    <g id="Group_3" data-name="Group 3" transform="translate(136.984 286.008)">
      <path id="Path_1" data-name="Path 1" d="M151.967,296.746h4.572v5.277a9.18,9.18,0,0,1,8.532-5.711c4.29,0,7.063,2.115,8.039,5.653a9.744,9.744,0,0,1,8.92-5.653c5.324,0,8.426,3.1,8.426,9.026V324.81h-4.572V306.265c0-3.6-1.516-5.711-4.889-5.711-4.243,0-7.5,3.972-7.5,11.47V324.81h-4.572V306.265c0-3.6-1.634-5.711-4.948-5.711-4.019,0-7.439,4.078-7.439,11.47V324.81h-4.572Z" transform="translate(24.117 -175.227)" fill="#003a87"/>
      <path id="Path_2" data-name="Path 2" d="M169.447,296.317c8.732,0,13.856,6.664,13.856,14.526s-5.124,14.514-13.856,14.514c-8.673,0-13.856-6.652-13.856-14.514s5.183-14.526,13.856-14.526m0,24.786c5.735,0,9.167-4.525,9.167-10.26s-3.432-10.26-9.167-10.26-9.167,4.525-9.167,10.26,3.443,10.26,9.167,10.26" transform="translate(63.083 -175.163)" fill="#003a87"/>
      <path id="Path_3" data-name="Path 3" d="M162.91,330.066V334.1h-4.583V295.456h4.583v14.678a10.388,10.388,0,0,1,8.838-4.63c7.862,0,12.281,6.323,12.281,14.514,0,8.133-4.642,14.514-12.34,14.514a10.136,10.136,0,0,1-8.779-4.466m16.477-10.048c0-6.111-3.549-10.26-8.4-10.26s-8.4,4.148-8.4,10.26,3.549,10.26,8.4,10.26,8.4-4.148,8.4-10.26" transform="translate(92.502 -184.421)" fill="#003a87"/>
      <path id="Path_4" data-name="Path 4" d="M164.181,295.442a3.361,3.361,0,1,1-3.326,3.4,3.3,3.3,0,0,1,3.326-3.4m2.292,38.818h-4.583v-28.17h4.583Z" transform="translate(119.683 -184.571)" fill="#003a87"/>
      <rect id="Rectangle_1" data-name="Rectangle 1" width="4.583" height="38.641" transform="translate(292.49 111.048)" fill="#003a87"/>
      <path id="Path_5" data-name="Path 5" d="M189.133,311.812H167.368c.329,5.676,3.7,9.39,8.838,9.39a9.319,9.319,0,0,0,8.568-4.971l3.819,2.08a13.439,13.439,0,0,1-12.493,7.04c-8.568,0-13.433-6.711-13.433-14.514s5.241-14.526,13.374-14.526c8.015,0,13.092,6.17,13.092,13.539Zm-4.689-3.926a8.217,8.217,0,0,0-8.4-7.474c-4.313,0-7.474,3.1-8.4,7.474Z" transform="translate(139.166 -175.227)" fill="#003a87"/>
      <path id="Path_6" data-name="Path 6" d="M164.1,293.581h20.649l.047.012h.012l.012.012a.129.129,0,0,1-.012.176l-.059.035-.035.023c-2.4,1.093-5.606,4.419-5.606,4.419-2.409,2.292-4.207,3.725-8.05,3.725H151.383a.1.1,0,0,1-.094-.106l.035-.094.071-.047a32.752,32.752,0,0,0,5.382-4.56,10,10,0,0,1,7.322-3.6" transform="translate(16.827 -204.581)" fill="#003a87"/>
      <path id="Path_7" data-name="Path 7" d="M151.406,290.888h34.187v7.463c-2.421-2.045-7.58-2.868-13.08-2.868v20.332c0,3.032.259,3.855,1.422,5.418H163.064c1.175-1.563,1.434-2.386,1.434-5.418V295.483c-5.5,0-10.659.823-13.092,2.868Zm50.617,25.749c3.5,0,9.355-.823,11.646-2.856v7.451H188.755c1.222-1.434,1.434-2.386,1.434-5.289V296.177c0-2.9-.211-3.855-1.434-5.289h23.622v7.463c-2.3-2.045-8.144-2.868-11.658-2.868h-2.774v8.062h2.033a23.478,23.478,0,0,0,7.11-.823V308.7a23.485,23.485,0,0,0-7.11-.823h-2.033v8.755Zm32.671-14.091c5.935.823,10.871,2.915,10.871,9.367,0,7.592-7.192,10.013-14.949,9.966-5.418-.035-10.013-.564-13.386-1.9v-6.8a24.912,24.912,0,0,0,13.386,4.113c3.772,0,7.239-.9,7.239-3.772s-3.208-3.549-9.8-4.548c-5.676-.858-10.824-3.291-10.871-8.885-.047-7.545,7.11-9.837,13.95-9.837a40.379,40.379,0,0,1,12.657,1.822v7.322a20.1,20.1,0,0,0-13-4.548c-3.255,0-6.334,1.034-6.334,3.467,0,3.032,4.56,3.467,10.236,4.242m33.835-12.3a36.237,36.237,0,0,1,9.1,1.081v7.545a12.206,12.206,0,0,0-9.049-4.031c-6.9,0-11.482,4.807-11.482,11.224s4.583,11.223,11.482,11.223a12.164,12.164,0,0,0,9.049-4.031V320.8a36.072,36.072,0,0,1-9.1,1.128c-11.917,0-20.543-5.935-20.543-15.865s8.626-15.819,20.543-15.819" transform="translate(18.085 -240.483)" fill="#d9000d"/>
      <path id="Path_8" data-name="Path 8" d="M181.649,290.243c-12.3,0-19.321,7.146-19.321,15.818,0,8.626,7.016,15.819,19.321,15.819s19.321-7.192,19.321-15.819c0-8.673-7.016-15.818-19.321-15.818m0,27.042c-6.193,0-10.224-5.112-10.224-11.224,0-6.158,4.031-11.223,10.224-11.223s10.224,5.065,10.224,11.223c0,6.111-4.031,11.224-10.224,11.224" transform="translate(135.521 -240.472)" fill="#d9000d"/>
      <path id="Path_9" data-name="Path 9" d="M175.548,293.581H196.2l.047.012h.012l.012.012a.12.12,0,0,1-.023.176l-.047.035-.035.023c-2.4,1.093-5.606,4.419-5.606,4.419-2.409,2.292-4.207,3.725-8.05,3.725H162.82c-.047,0-.082-.059-.082-.106l.035-.094.07-.047a32.74,32.74,0,0,0,5.383-4.56,10,10,0,0,1,7.322-3.6" transform="translate(139.93 -204.581)" fill="#003a87"/>
      <path id="Path_10" data-name="Path 10" d="M172.686,293.581h20.649l.047.012h.012l.012.012a.12.12,0,0,1-.023.176l-.047.035-.035.023c-2.4,1.093-5.606,4.419-5.606,4.419-2.409,2.292-4.207,3.725-8.05,3.725H159.958c-.047,0-.082-.059-.082-.106l.035-.094.07-.047a32.743,32.743,0,0,0,5.383-4.56,10,10,0,0,1,7.322-3.6" transform="translate(109.157 -204.581)" fill="#003a87"/>
      <path id="Path_11" data-name="Path 11" d="M169.824,293.581h20.649l.047.012h.012l.012.012a.129.129,0,0,1-.012.176l-.059.035-.035.023c-2.4,1.093-5.606,4.419-5.606,4.419-2.409,2.292-4.207,3.725-8.05,3.725H157.108a.1.1,0,0,1-.094-.106l.047-.094.059-.047a32.746,32.746,0,0,0,5.383-4.56,10,10,0,0,1,7.322-3.6" transform="translate(78.384 -204.581)" fill="#003a87"/>
      <path id="Path_12" data-name="Path 12" d="M166.961,293.581H187.61l.047.012h.012l.012.012a.12.12,0,0,1-.023.176l-.047.035-.035.023c-2.4,1.093-5.606,4.419-5.606,4.419-2.409,2.292-4.207,3.725-8.051,3.725H154.245a.1.1,0,0,1-.094-.106l.047-.094.059-.047a32.746,32.746,0,0,0,5.382-4.56,10.023,10.023,0,0,1,7.322-3.6" transform="translate(47.6 -204.581)" fill="#003a87"/>
      <path id="Path_13" data-name="Path 13" d="M231.707,305.519a52.977,52.977,0,1,0,0,74.921,52.986,52.986,0,0,0,0-74.921M178.6,376.832c-2.456,2.468-8.532.388-13.562-4.642s-7.11-11.106-4.642-13.562,8.532-.388,13.562,4.642,7.11,11.094,4.642,13.563M200.658,366.6c-4.078,4.066-14.1.635-22.411-7.674s-11.74-18.333-7.674-22.411,14.1-.635,22.411,7.674,11.741,18.333,7.674,22.412m-3.185-26.842c-13.315-13.316-18.815-29.4-12.293-35.927s22.611-1.022,35.927,12.293,18.815,29.4,12.293,35.927-22.611,1.022-35.927-12.293" transform="translate(-90.857 -243.02)" fill="#003a87"/>
    </g>
  </g>
</svg>
